<svg width="24" height="24" viewBox="0 0 24 24" fill="none" xmlns="http://www.w3.org/2000/svg">
<path fill-rule="evenodd" clip-rule="evenodd" d="M7.10319 18.721C8.54712 19.5335 10.2132 19.9978 11.9875 20C11.7183 20 11.5 20.2183 11.5 20.4875V21C11.5 21.5523 11.0523 22 10.5 22H7.5C7.22386 22 7 22.2239 7 22.5C7 22.7761 7.22386 23 7.50001 23H16.5C16.7761 23 17 22.7761 17 22.5C17 22.2239 16.7761 22 16.5 22H13.5C12.9477 22 12.5 21.5523 12.5 21V20.4875C12.5 20.2183 12.2817 20 12.0125 20C17.5296 19.9932 22 15.5187 22 9.99999C22 6.34209 20.036 3.14291 17.105 1.39941C16.874 1.26199 16.5786 1.3476 16.4442 1.58039C16.3025 1.82576 16.3941 2.13862 16.6368 2.2848C19.2513 3.85948 21 6.72552 21 9.99999C21 14.9706 16.9706 19 12 19C10.4171 19 8.92969 18.5914 7.63743 17.8738C7.38943 17.7361 7.07221 17.8131 6.93038 18.0587C6.79616 18.2912 6.86926 18.5894 7.10319 18.721ZM12 18C16.4183 18 20 14.4183 20 10C20 5.58172 16.4183 2 12 2C7.58172 2 4 5.58172 4 10C4 14.4183 7.58172 18 12 18ZM12 17C14.4116 17 16.5384 15.7805 17.7973 13.9244L16.0718 12.9282C14.8238 14.9094 13.1676 16.3406 11.5476 16.9856C11.6972 16.9952 11.848 17 12 17ZM18.002 13.6043C18.0456 13.5319 18.0879 13.4585 18.1289 13.3844L18.002 13.6043ZM16.5718 12.0622L18.2981 13.0589C18.7477 12.1347 19 11.0968 19 10C19 8.56237 18.5666 7.22597 17.8234 6.1143C18.0751 7.83992 17.6638 9.99039 16.5718 12.0622ZM15.9059 4.2347C17.3291 5.53016 17.2595 8.60073 15.7054 11.562L12.683 9.817L15.9059 4.2347ZM15.0399 3.7347L11.817 9.317L8.79458 7.57203C10.5821 4.74553 13.2064 3.14993 15.0399 3.7347ZM11.317 10.183L8.29458 8.43805C6.74054 11.3993 6.6709 14.4698 8.09407 15.7653L11.317 10.183ZM12.4523 3.01438C10.8324 3.65937 9.17613 5.09062 7.92817 7.07181L6.20269 6.0756C7.46156 4.21956 9.58836 3 12 3C12.152 3 12.3028 3.00484 12.4523 3.01438ZM5.8702 6.61715C5.91179 6.54196 5.95471 6.46762 5.99895 6.39416L5.8702 6.61715ZM7.42818 7.93783L5.70191 6.94118C5.25225 7.8653 5 8.90319 5 10C5 11.4376 5.43339 12.774 6.17664 13.8857C5.92487 12.1601 6.33618 10.0096 7.42818 7.93783ZM15.2054 12.428L12.183 10.683L8.96009 16.2653C10.7936 16.85 13.4179 15.2545 15.2054 12.428Z" fill="#241C15"/>
</svg>
