<?xml version="1.0" standalone="no"?>
<!DOCTYPE svg PUBLIC "-//W3C//DTD SVG 1.0//EN" "http://www.w3.org/TR/2001/REC-SVG-20010904/DTD/svg10.dtd">
<svg xmlns="http://www.w3.org/2000/svg" xmlns:xlink="http://www.w3.org/1999/xlink" id="body_1" width="1024" height="768">

<g transform="matrix(1.1779141 0 0 1.1779141 127.99999 -0)">
	<g>
        <path d="M137.5 319.5C 138.6 319.5 139.7 319.5 140.8 319.5C 141.5 318 141.5 315.8 140.8 313.3C 140.1 309.59998 139 307.09998 136.8 307.4C 134.6 307.8 134.6 310.69998 135.3 314.4C 135.6 316.6 136.4 318.4 137.5 319.5z" stroke="none" fill="#000000" fill-rule="nonzero" />
		<g>
            <path d="M118.1 322.8C 119.6 323.5 120.7 323.9 121 323.5C 121.4 323.1 121 322.8 120.6 322C 119.9 320.5 118 319.4 116.6 318.7C 112.9 317.2 108.9 317.6 105.6 320.2C 104.5 320.90002 103.4 322 103.799995 322.80002C 103.799995 323.2 104.2 323.2 104.49999 323.2C 105.19999 323.2 108.49999 321.7 112.19999 321.40002C 114.4 321.3 116.6 322.1 118.1 322.8z" stroke="none" fill="#000000" fill-rule="nonzero" />
            <path d="M114.8 324.6C 112.600006 325 111.5 325.7 110.8 326.4C 110.100006 327.09998 109.700005 327.5 109.700005 327.9L109.700005 327.9L109.700005 328.3L110.100006 328.3C 110.50001 328.3 111.600006 327.9 111.600006 327.9C 114.50001 326.8 116.40001 326.8 118.200005 327.19998C 119.3 327.19998 119.700005 327.59998 120.00001 327.19998C 120.00001 327.19998 120.00001 326.8 120.00001 326.49997C 119.9 325.4 117.7 324.3 114.8 324.6z" stroke="none" fill="#000000" fill-rule="nonzero" />
		</g>
		<g>
            <path d="M115.9 327.2C 116.6 325.7 116.6 322.40002 115.9 319.90002C 115.200005 316.2 114.1 314.00003 111.5 314.00003C 109.3 314.40002 109.3 317.30002 110 321.30002C 110.4 323.90002 111.5 325.30002 111.8 326.40002C 113.7 329.4 114.8 328.6 115.9 327.2z" stroke="none" fill="#000000" fill-rule="nonzero" />
		</g>
        <path d="M130.9 331.2C 132.4 331.90002 133.79999 331.6 134.59999 330.5C 134.99998 329.4 134.2 327.9 132.79999 327.2C 131.29999 326.5 129.9 326.80002 129.09999 327.90002C 128.3 329 129.4 330.5 130.9 331.2z" stroke="none" fill="#000000" fill-rule="nonzero" />
        <path d="M140 323.2C 138.9 323.2 137.8 324.30002 137.8 326.1C 137.8 327.6 138.5 329 140 329C 141.1 329 142.2 327.9 142.2 326.1C 141.9 324.6 141.1 323.2 140 323.2z" stroke="none" fill="#000000" fill-rule="nonzero" />
        <path d="M62.5 351.7C 62.1 351.30002 61.8 351.30002 61.4 351.7C 61 351.7 60.7 351.7 60.300003 351.7C 59.600002 351.7 58.800003 351.30002 58.500004 350.6C 58.200005 349.9 58.100002 348.80002 58.500004 347.30002L58.500004 347.30002L58.900005 346.6C 60.000004 344.4 61.500004 341.1 59.600006 337.80002C 58.100006 335.2 56.300007 333.80002 53.700005 333.40002C 51.100006 333.00003 48.600006 334.10004 47.100006 336.00003C 44.500008 338.90002 44.200005 342.60004 44.500008 344.00003C 44.500008 344.40002 44.90001 344.70004 45.20001 344.70004C 45.60001 344.70004 46.300007 344.30005 46.70001 343.20004L46.70001 343.20004L46.70001 342.80005C 46.70001 342.10004 47.10001 341.30005 47.800007 340.20004C 48.500008 339.10004 49.600006 338.40005 50.70001 338.40005C 51.800007 338.00006 53.300007 338.40005 54.40001 339.10007C 56.20001 340.20007 57.000008 342.40005 56.20001 344.60007C 55.10001 345.70007 54.70001 347.50006 54.70001 349.40005C 55.10001 352.70004 57.300007 354.20004 59.10001 354.50006C 60.90001 354.50006 62.40001 353.40005 62.40001 352.70007C 62.8 352.1 62.5 352.1 62.5 351.7z" stroke="none" fill="#000000" fill-rule="nonzero" />
        <path d="M168.9 345.5C 168.9 345.1 168.5 343.7 167.79999 341.5L167.79999 341.5L166.29999 338.2C 168.9 334.5 168.9 330.90002 168.49998 329.1C 168.09999 326.9 166.99998 324.7 165.19998 322.5C 163.39998 320.3 158.99998 318.1 153.49998 316.6L153.49998 316.6L150.59999 315.9C 150.59999 315.9 150.59999 308.9 150.2 306C 150.2 303.8 149.8 300.5 148.7 297.2C 147.59999 292.80002 145.4 288.80002 142.5 286.2C 149.8 278.5 154.6 269.7 154.6 262.40002C 154.6 248.50003 137.40001 244.10002 115.8 252.90002L115.8 252.90002L111.4 254.70003C 111.4 254.70003 103.4 246.70003 103 246.70003C 79.3 225.5 3.6 310 27.7 330.5L27.7 330.5L32.8 334.9C 31.3 338.6 31 342.6 31.3 347C 32 352.5 35 358 39.3 362.4C 43.7 366.4 49.5 369 55.4 369C 64.9 391 86.5 404.1 111.7 404.9C 138.8 405.6 161.79999 392.8 171.29999 370.1C 171.99998 368.6 174.59999 361.30002 174.59999 354.7C 175.2 348 171.5 345.5 168.9 345.5zM57.7 362.7C 57 362.7 55.9 363.1 55.100002 362.7C 47.100002 362.30002 37.9 355 37.200005 346.2C 36.500004 336.7 41.200005 329.40002 50.000004 327.5C 51.100002 327.1 52.200005 327.1 53.700005 327.1C 58.500004 327.5 65.8 331.1 67.600006 341.7C 69 351.7 66.9 361.2 57.7 362.7zM48.6 321.7C 43.1 322.80002 38.399998 325.7 35.399998 330.1C 33.6 328.6 30.299997 325.7 29.899998 324.6C 25.099998 315.80002 34.999996 298.30002 42 288.7C 58.8 264.6 85.5 246.30002 97.6 249.50002C 99.799995 250.20001 106.4 257.90002 106.4 257.90002C 106.4 257.90002 94 264.90002 82.600006 274.40002C 67.2 285.8 55.5 303 48.6 321.7zM134.9 359L135.29999 358.6C 135.29999 358.2 134.9 358.2 134.9 358.2C 134.9 358.2 122.09999 360 109.99999 355.6C 111.49999 351.2 114.799995 352.7 120.19999 353.4C 129.69998 354.1 138.49998 352.69998 144.69998 350.8C 150.19998 349.3 157.49998 346 162.99998 341.69998C 164.79999 345.69998 165.59999 350.49997 165.59999 350.49997C 165.59999 350.49997 167.09999 350.09998 168.2 350.89996C 169.3 351.59998 170 353.09998 169.7 356.79996C 168.59999 364.09995 165.3 369.59995 160.59999 375.09995C 157.7 378.39993 153.59999 381.29996 149.29999 383.49994C 147.09999 384.59995 144.49998 385.69995 141.99998 386.39993C 122.19998 392.59995 102.499985 385.99994 96.29999 370.99994C 95.89999 369.89993 95.19999 368.79993 95.19999 367.29993C 92.59999 357.39993 94.79999 345.69992 102.19999 338.39993C 102.59999 337.99994 102.89999 337.29993 102.89999 336.59995C 102.89999 335.89996 102.499985 335.49994 102.19999 335.09995C 99.59999 331.39993 90.89999 325.19995 92.69999 313.09995C 93.79999 304.29996 101.49999 298.49994 108.39999 298.79996L108.39999 298.79996L110.19999 298.79996C 113.09999 298.79996 116.09999 299.49997 118.19999 299.49997C 122.19999 299.49997 126.19999 299.09998 130.59999 295.49997C 132.09999 294.39996 133.2 293.29996 135.4 292.89996C 135.79999 292.89996 136.09999 292.49997 137.2 292.89996C 138.3 292.89996 139.4 293.29996 140.09999 293.99997C 143.79999 296.59998 144.09999 301.99997 144.49998 306.39996C 144.49998 308.99997 144.89998 314.79996 144.89998 316.29996C 145.29997 319.99997 145.99998 320.69995 148.19998 321.39996C 149.29999 321.79996 150.39998 322.09998 151.89998 322.49997C 156.69998 323.99997 159.59998 325.09998 161.39998 326.89996C 162.49998 327.99997 162.89998 329.09998 163.19998 330.19995C 163.89998 334.19995 159.89998 339.29996 149.99998 344.09995C 138.99998 349.19995 126.19998 350.29996 117.09998 349.19995L117.09998 349.19995L113.79998 348.79996C 106.49998 347.69995 102.49998 357.19995 106.79998 363.39996C 109.69998 367.39996 117.39998 370.39996 124.69998 370.39996C 142.29999 370.39996 155.79999 363.09998 160.59998 356.49997L160.59998 356.49997L160.99997 355.79996C 161.39996 355.39996 160.99997 355.09995 160.59998 355.39996C 156.59998 358.29996 138.29997 369.29996 118.89998 365.99997C 118.89998 365.99997 116.69998 365.59998 114.49998 364.89996C 112.699974 364.19995 109.39998 362.69995 108.599976 358.99997C 125 363.8 134.9 359 134.9 359zM80 288.8C 85.9 281.8 93.5 275.59998 100.1 272.3C 100.5 272.3 100.5 272.3 100.5 272.69998C 100.1 273.8 99 275.59998 98.7 277.09998C 98.7 277.49997 99.1 277.49997 99.1 277.49997C 103.1 274.59998 110.4 271.59998 116.7 271.29996C 117.1 271.29996 117.1 271.69995 117.1 271.69995C 116 272.39996 115.299995 273.49994 114.2 274.59995C 114.2 274.59995 114.2 274.99994 114.6 274.99994C 119 274.99994 125.2 276.49994 129.2 278.99994C 129.59999 278.99994 129.2 279.69995 128.8 279.69995C 122.600006 278.19995 112.700005 277.09995 102.100006 279.69995C 92.600006 281.89996 85.600006 285.59995 80.50001 289.19995C 80 289.1 79.7 289.1 80 288.8z" stroke="none" fill="#000000" fill-rule="nonzero" />
	</g>
	<g>
        <path d="M603.6 305.2C 594.5 305.2 590.39996 311.80002 588.6 315.80002C 587.5 318.40002 587.5 319.1 586.8 319.1C 585.7 319.1 586.39996 316.9 587.2 314.7C 588.3 309.90002 587.60004 306.30002 587.60004 306.30002L587.60004 306.30002L574.80005 306.30002L574.80005 367.80002L592.4 367.80002L592.4 348.40002C 594.60004 352.10004 598.30005 355.7 604.10004 355.7C 616.9 355.7 623.10004 345.1 623.10004 330.5C 623 314 615.3 305.2 603.6 305.2zM598.9 344C 594.9 344 591.9 338.9 591.9 331.9C 591.9 324.9 594.80005 319.8 598.9 319.8C 603.7 319.8 605.9 324.19998 605.9 331.9C 605.8 340 604 344 598.9 344z" stroke="none" fill="#000000" fill-rule="nonzero" />
        <path d="M255.7 305.2C 248 305.2 244.4 311.40002 242.5 315.1C 241.4 317.30002 241.4 319.1 240.3 319.1C 239.2 319.1 239.90001 317.6 239.2 314.30002C 238.09999 309.90002 234.4 305.2 226.8 305.2C 218.8 305.2 215.1 312.2 213.6 315.80002C 212.5 318.40002 212.5 319.1 211.8 319.1C 210.7 319.1 211.40001 316.9 212.2 314.7C 213.3 309.90002 212.59999 306.30002 212.59999 306.30002L212.59999 306.30002L199.79999 306.30002L199.79999 354.6L216.99998 354.6L216.99998 330.5C 216.99998 325.7 218.79999 319.9 222.49998 319.9C 226.49998 319.9 227.29999 322.8 227.29999 328.3L227.29999 328.3L227.29999 354.59998L244.9 354.59998L244.9 330.49997C 244.9 326.09998 246.7 319.89996 250.4 319.89996C 254.4 319.89996 255.2 324.29996 255.2 328.29996L255.2 328.29996L255.2 354.29996L272 354.29996L272 325.79996C 271.8 313.3 267.4 305.2 255.7 305.2zM552.8 305.2C 545.1 305.2 541.5 311.40002 539.6 315.1C 538.5 317.30002 538.5 319.1 537.39996 319.1C 536.3 319.1 536.99994 317.30002 536.3 314.30002C 534.8 309.90002 531.89996 305.2 523.89996 305.2C 515.89996 305.2 512.19995 312.2 510.69995 315.80002C 509.59995 318.40002 509.59995 319.1 508.89996 319.1C 507.79996 319.1 508.49997 316.9 509.29996 314.7C 510.39996 309.90002 509.69995 306.30002 509.69995 306.30002L509.69995 306.30002L496.89996 306.30002L496.89996 354.6L514.49994 354.6L514.49994 330.5C 514.49994 325.7 516.2999 319.9 519.99994 319.9C 523.99994 319.9 524.7999 322.8 524.7999 328.3L524.7999 328.3L524.7999 354.59998L542.3999 354.59998L542.3999 330.49997C 542.3999 326.09998 544.1999 319.89996 547.8999 319.89996C 551.8999 319.89996 552.6999 324.29996 552.6999 328.29996L552.6999 328.29996L552.6999 354.29996L569.8999 354.29996L569.8999 325.79996C 568.9 313.3 564.5 305.2 552.8 305.2zM301.8 305.2C 288.3 305.2 278.69998 310 278.69998 310L278.69998 310L278.69998 324.6C 278.69998 324.6 289.3 318.4 298.09998 318.4C 305.09998 318.4 305.8 322.1 305.39996 325.4C 305.39996 325.4 303.59998 325 297.39996 325C 283.09998 325 275.79996 331.6 275.79996 341.8C 275.79996 351.69998 283.79996 355.69998 290.79996 355.69998C 300.69995 355.69998 305.09995 349.09998 306.49997 345.8C 307.59998 343.59998 307.59998 342.09998 308.29996 342.09998C 309.39996 342.09998 308.99997 343.19998 308.99997 345.39996C 308.99997 349.09998 308.99997 351.99997 309.69998 354.49997L309.69998 354.49997L323 354.49997L323 330.69998C 322.6 315.8 317.5 305.2 301.8 305.2zM297.4 343.3C 293.4 344.4 291.19998 342.9 291.19998 340.4C 291.19998 336.69998 295.19998 334.9 300.69998 334.9C 303.3 334.9 305.49997 335.3 305.49997 335.3C 305.4 336.7 301.8 342.2 297.4 343.3zM351.5 291.7L369.1 291.7L369.1 354.6L351.5 354.6C 351.5 354.3 351.5 291.7 351.5 291.7zM388.5 330.5C 388.5 326.1 392.5 322.1 399.8 322.1C 407.8 322.1 414.4 326.1 415.9 326.9L415.9 326.9L415.9 310C 415.9 310 410.8 305.2 398.3 305.2C 385.09998 305.2 374.19998 312.90002 374.19998 329.7C 374.19998 346.5 384.09998 355.7 398.3 355.7C 409.3 355.7 416.19998 349.5 416.19998 349.5L416.19998 349.5L416.19998 333.4C 413.99997 334.5 408.19998 338.5 400.09998 338.5C 391.4 338.9 388.5 334.9 388.5 330.5zM451.4 305.2C 441.19998 305.2 437.5 314.7 436.8 316.5C 436.09998 318.3 435.69998 319.1 435 319.1C 433.9 319.1 434.6 316.9 435 315.80002C 435.7 313.2 437.6 307.00003 437.6 299.00003C 437.6 293.50003 436.9 291.70004 436.9 291.70004L436.9 291.70004L421.9 291.70004L421.9 354.60004L439.5 354.60004L439.5 330.50003C 439.5 326.50003 441 319.90002 445.4 319.90002C 449.1 319.90002 450.19998 322.50003 450.19998 327.90002L450.19998 327.90002L450.19998 354.60004L467.8 354.60004L467.8 329C 467.1 316.6 465.3 305.2 451.4 305.2zM473 306.3L473 354.59998L490.6 354.59998L490.6 306.3C 490.6 306.3 487.7 308.09998 481.80002 308.09998C 475.9 307.8 473 306.3 473 306.3z" stroke="none" fill="#000000" fill-rule="nonzero" />
        <path d="M471.19998 297.9C 471.19998 294.034 475.94577 290.9 481.8 290.9C 487.6542 290.9 492.4 294.034 492.4 297.9C 492.4 301.766 487.6542 304.9 481.8 304.9C 475.94577 304.9 471.19998 301.766 471.19998 297.9" stroke="none" fill="#000000" fill-rule="nonzero" />
        <path d="M328.5 306.3L328.5 354.59998L346 354.59998L346 306.3C 346 306.3 343.1 308.09998 337.2 308.09998C 337.2 307.8 328.5 306.3 328.5 306.3z" stroke="none" fill="#000000" fill-rule="nonzero" />
        <path d="M326.6 297.9C 326.6 294.034 331.3458 290.9 337.2 290.9C 343.05423 290.9 347.80002 294.034 347.80002 297.9C 347.80002 301.766 343.05423 304.9 337.2 304.9C 331.3458 304.9 326.6 301.766 326.6 297.9" stroke="none" fill="#000000" fill-rule="nonzero" />
	</g>
</g>
</svg>